<svg id="Laag_1" data-name="Laag 1" xmlns="http://www.w3.org/2000/svg" viewBox="0 0 16.39 8.08"><defs><style>.cls-1{fill:none;stroke:#f60;stroke-miterlimit:10;stroke-width:0.28px;}</style></defs><title>language-solid</title><path class="cls-1" d="M8.27,12.83c-.08-.3-.19-.81-.19-.81h0s-.11.51-.2.81l-.28.91h1ZM20,9.41h-7v7.8h7a.59.59,0,0,0,.6-.59V10A.59.59,0,0,0,20,9.41Zm-.61,2.92a.3.3,0,0,1-.3.3h-.28a4.46,4.46,0,0,1-1.08,1.7,7.57,7.57,0,0,0,.66.44.28.28,0,0,1,.1.39l-.2.34a.31.31,0,0,1-.42.11c-.31-.19-.61-.4-.89-.61a8.67,8.67,0,0,1-.89.61.31.31,0,0,1-.42-.11l-.2-.34a.29.29,0,0,1,.11-.39c.23-.14.45-.29.65-.44a7.21,7.21,0,0,1-.52-.63.27.27,0,0,1,.09-.41l.16-.1.19-.1a.3.3,0,0,1,.4.08,4,4,0,0,0,.44.51,3.74,3.74,0,0,0,.75-1H14.82a.31.31,0,0,1-.31-.3v-.39a.3.3,0,0,1,.31-.29h1.61v-.39a.29.29,0,0,1,.3-.29h.4a.29.29,0,0,1,.3.29v.39H19a.29.29,0,0,1,.3.29ZM4.45,10v6.63a.59.59,0,0,0,.6.59H12.1V9.41h-7A.59.59,0,0,0,4.45,10Zm1.48,5.27,1.45-4.12a.29.29,0,0,1,.28-.2h.82a.3.3,0,0,1,.29.2l1.45,4.12a.3.3,0,0,1-.29.39H9.35a.31.31,0,0,1-.29-.21l-.23-.78H7.31l-.23.78a.3.3,0,0,1-.29.21H6.22A.3.3,0,0,1,5.93,15.26Z" transform="translate(-4.31 -9.27)"/></svg>