<svg id="Laag_1" data-name="Laag 1" xmlns="http://www.w3.org/2000/svg" viewBox="0 0 15.9 17.9"><defs><style>.cls-1{fill:none;stroke:#f60;stroke-miterlimit:10;stroke-width:0.28px;}</style></defs><title>live-streaming</title><path class="cls-1" d="M13.25,8.39a1,1,0,0,1-1.5,0,1.17,1.17,0,0,1,0-1.58,1,1,0,0,1,1.5,0A1.17,1.17,0,0,1,13.25,8.39Z" transform="translate(-4.55 -3.41)"/><path class="cls-1" d="M14.7,10.08a.48.48,0,0,1-.36-.16.54.54,0,0,1,0-.75,2.31,2.31,0,0,0,0-3.15.54.54,0,0,1,0-.75.48.48,0,0,1,.71,0,3.43,3.43,0,0,1,0,4.65A.47.47,0,0,1,14.7,10.08Z" transform="translate(-4.55 -3.41)"/><path class="cls-1" d="M15.83,11.64a.5.5,0,0,1-.35-.15.56.56,0,0,1,0-.76,4.61,4.61,0,0,0,0-6.27.54.54,0,0,1,0-.75.48.48,0,0,1,.71,0A5.58,5.58,0,0,1,17.72,7.6a5.6,5.6,0,0,1-1.53,3.89A.51.51,0,0,1,15.83,11.64Z" transform="translate(-4.55 -3.41)"/><path class="cls-1" d="M10.3,10.08A.47.47,0,0,1,10,9.92a3.43,3.43,0,0,1,0-4.65.48.48,0,0,1,.71,0,.54.54,0,0,1,0,.75,2.31,2.31,0,0,0,0,3.15.54.54,0,0,1,0,.75A.48.48,0,0,1,10.3,10.08Z" transform="translate(-4.55 -3.41)"/><path class="cls-1" d="M9.17,11.64a.51.51,0,0,1-.36-.15A5.6,5.6,0,0,1,7.28,7.6,5.58,5.58,0,0,1,8.81,3.71a.48.48,0,0,1,.71,0,.54.54,0,0,1,0,.75,4.61,4.61,0,0,0,0,6.27.56.56,0,0,1,0,.76A.5.5,0,0,1,9.17,11.64Z" transform="translate(-4.55 -3.41)"/><path class="cls-1" d="M19.13,12.56H5.87a1.22,1.22,0,0,0-1.18,1.25v6.11a1.22,1.22,0,0,0,1.18,1.25H19.13a1.22,1.22,0,0,0,1.18-1.25V13.81A1.22,1.22,0,0,0,19.13,12.56Zm-10.57,7H6.71A.52.52,0,0,1,6.2,19V14.69a.52.52,0,0,1,.51-.53.51.51,0,0,1,.5.53v3.82H8.56a.52.52,0,0,1,.51.53A.52.52,0,0,1,8.56,19.57ZM10.62,19a.5.5,0,1,1-1,0V14.69a.5.5,0,1,1,1,0Zm4.24-4.2-1.25,4.35h0a.5.5,0,0,1-1,0h0l-1.24-4.35a.54.54,0,0,1,.34-.66.49.49,0,0,1,.62.36l.76,2.66.76-2.66a.5.5,0,0,1,.63-.36A.54.54,0,0,1,14.86,14.84ZM18,16.06a.53.53,0,0,1,0,1.06H16.53v1.39h1.69a.52.52,0,0,1,.51.53.52.52,0,0,1-.51.53H16a.51.51,0,0,1-.5-.53V14.69a.51.51,0,0,1,.5-.53h2.27a.53.53,0,0,1,0,1.06H16.53v.84Z" transform="translate(-4.55 -3.41)"/></svg>