<svg id="Laag_1" data-name="Laag 1" xmlns="http://www.w3.org/2000/svg" viewBox="0 0 15.29 15.29"><defs><style>.cls-1{fill:none;stroke:#f60;stroke-miterlimit:10;stroke-width:0.71px;}</style></defs><title>volume-up-solid.svg</title><path class="cls-1" d="M10.65,7.58,8.4,10.28H5.82a.68.68,0,0,0-.61.73v4.38a.68.68,0,0,0,.61.73H8.4l2.25,2.7c.38.46,1,.13,1-.52V8.1C11.69,7.44,11,7.12,10.65,7.58ZM16.56,6a.56.56,0,0,0-.85.21.83.83,0,0,0,.18,1,7.53,7.53,0,0,1,2.68,5.94,7.53,7.53,0,0,1-2.68,5.94.83.83,0,0,0-.18,1,.56.56,0,0,0,.85.21,9.1,9.1,0,0,0,3.23-7.17A9.1,9.1,0,0,0,16.56,6Zm.8,7.17a6,6,0,0,0-2.17-4.75.56.56,0,0,0-.84.23.83.83,0,0,0,.19,1,4.39,4.39,0,0,1,1.61,3.51,4.41,4.41,0,0,1-1.61,3.51.83.83,0,0,0-.19,1,.56.56,0,0,0,.84.23A6,6,0,0,0,17.36,13.2Zm-3.59-2.34a.56.56,0,0,0-.82.29.79.79,0,0,0,.24,1,1.32,1.32,0,0,1,0,2.12.79.79,0,0,0-.24,1,.55.55,0,0,0,.82.28,2.76,2.76,0,0,0,1.16-2.33,2.79,2.79,0,0,0-1.16-2.34Z" transform="translate(-4.85 -5.55)"/></svg>