<svg id="Laag_1" data-name="Laag 1" xmlns="http://www.w3.org/2000/svg" viewBox="0 0 20.08 17.48"><defs><style>.cls-1{fill:#fff;stroke:#f60;stroke-width:0.71px;}</style></defs><title>camera-solid</title><path class="cls-1" d="M22.19,8.31V19.09a1.81,1.81,0,0,1-1.82,1.79H4.63a1.81,1.81,0,0,1-1.82-1.79V8.31a1.82,1.82,0,0,1,1.82-1.8H8l.47-1.23a1.8,1.8,0,0,1,1.69-1.16h4.75a1.8,1.8,0,0,1,1.7,1.16L17,6.51h3.33A1.82,1.82,0,0,1,22.19,8.31ZM17,13.7a4.54,4.54,0,1,0-4.54,4.49A4.52,4.52,0,0,0,17,13.7Zm-1.21,0a3.33,3.33,0,1,1-3.33-3.3A3.32,3.32,0,0,1,15.83,13.7Z" transform="translate(-2.46 -3.76)"/></svg>