<svg id="Laag_1" data-name="Laag 1" xmlns="http://www.w3.org/2000/svg" viewBox="0 0 15.3 14.31"><defs><style>.cls-1{fill:none;stroke:#f60;stroke-miterlimit:10;stroke-width:0.28px;}</style></defs><title>comment-medical-solid</title><path class="cls-1" d="M12.33,5C8.19,5,4.82,7.86,4.82,11.46A6,6,0,0,0,6.5,15.55a8.22,8.22,0,0,1-1.61,3,.25.25,0,0,0,0,.35.2.2,0,0,0,.16.07,6.43,6.43,0,0,0,4.12-1.61,8.37,8.37,0,0,0,3.15.61c4.15,0,7.51-2.91,7.51-6.51S16.48,5,12.33,5Zm2.82,7.26a.24.24,0,0,1-.23.25H13.27v1.75a.25.25,0,0,1-.23.26H11.63a.25.25,0,0,1-.24-.26V12.46H9.75a.24.24,0,0,1-.23-.25v-1.5a.24.24,0,0,1,.23-.25h1.64V8.7a.25.25,0,0,1,.24-.25H13a.24.24,0,0,1,.23.25v1.76h1.65a.24.24,0,0,1,.23.25Z" transform="translate(-4.68 -4.81)"/></svg>