<svg id="Laag_1" data-name="Laag 1" xmlns="http://www.w3.org/2000/svg" viewBox="0 0 15.73 17.6"><defs><style>.cls-1{fill:none;stroke:#f60;stroke-miterlimit:10;stroke-width:0.28px;}</style></defs><title>microphone-solid</title><path class="cls-1" d="M12,14.88c2.32,0,4.21-1.46,4.21-3.25V6.22C16.23,4.43,14.34,3,12,3S7.8,4.43,7.8,6.22v5.41C7.8,13.42,9.69,14.88,12,14.88Zm7-5.41h-.7a.64.64,0,0,0-.71.54v1.62c0,2.53-2.83,4.56-6.18,4.31-2.91-.22-5-2.24-5-4.5V10a.64.64,0,0,0-.7-.54H5a.64.64,0,0,0-.7.54v1.36c0,3,2.81,5.73,6.67,6.14v1.15H8.51a.65.65,0,0,0-.71.55v.54a.64.64,0,0,0,.71.54h7a.63.63,0,0,0,.7-.54v-.54a.64.64,0,0,0-.7-.55H13.07V17.52c3.76-.39,6.67-2.88,6.67-5.89V10A.63.63,0,0,0,19,9.47Z" transform="translate(-4.15 -2.83)"/></svg>